<svg xmlns="http://www.w3.org/2000/svg" style="isolation:isolate" viewBox="352 251 40.698 50"><path d="M374.674 251c2.739 0 5.128.472 7.173 1.153l-1.94 6.987 4.895-5.756c1.842.865 4.795 2.945 6.733 5.756l-8.018 4.529-1.284 1.284s-8.59-7.689-16.28 0v16.28l-7.867 7.867c-3.765-4.053-6.086-9.462-6.086-15.426C352 261.151 362.151 251 374.674 251z" fill="#F2D0C7"/><path d="M379.157 292.874l.137-.136c.367-.366.573-.863.572-1.381l.036-3.148.005-1.162 5.809-2.326 1.163 1.163s-.181 2.325 1.163 2.325a2.324 2.324 0 0 1 2.321 2.285c0 .014.009.027.009.041 0 .018-.014.031-.014.05 0 1.985-2.321 2.371-2.321 3.438 0 1.258 1.872 1.163 2.326 1.163a2.327 2.327 0 0 1 2.325 2.285c0 .014.01.027.01.041 0 .026-.01.068-.019.109a2.304 2.304 0 0 1-1.094 1.862c-.668.473-2.862 1.517-6.395 1.517-4.606 0-6.446-4.601-6.446-6.977 0-.431.109-.845.413-1.149z" fill="#848484"/><path d="M389.209 297.512c0 .639.524 1.162 1.163 1.162.64 0 1.163-.523 1.163-1.162 0-.64-.523-1.163-1.163-1.163-.639 0-1.163.523-1.163 1.163zm-2.325-6.977c0 .639.523 1.163 1.163 1.163.639 0 1.162-.524 1.162-1.163 0-.64-.523-1.163-1.162-1.163-.64 0-1.163.523-1.163 1.163z" fill="#2C2C2C"/><path vector-effect="non-scaling-stroke" stroke-width="3" stroke="#2C2C2C" stroke-miterlimit="10" d="M375.256 274.256l-8.14-9.303"/><path d="M379.907 269.605c6.395 0 11.628 5.232 11.628 11.628v2.325c-4.02 3.779-11.628 4.651-11.628 4.651a2.33 2.33 0 0 0-2.326-2.325 2.329 2.329 0 0 0-2.325 2.325v5.814c-2.566 6.105-14.754 4.289-16.279 5.814 0-2.711 1.549-6.881 9.302-9.193v-9.411c0-6.396 5.233-11.628 11.628-11.628z" fill="#848484"/><path d="M359.463 297.262a32.99 32.99 0 0 1 2.911-.509c.2-.013.409-.032.618-.05 3.402-.295 8.461-.732 9.938-3.22v-5.274a4.665 4.665 0 0 1 4.651-4.651c1.585 0 2.971.814 3.806 2.04l.037-.005c2.053-.422 5.436-1.34 7.785-3.116 0 0 1.136-.704 2.294-1.853.009.199.032.404.032.609v2.325c-3.898 3.661-11.137 4.593-11.587 4.647a.39.39 0 0 0-.041.004 2.33 2.33 0 0 0-2.326-2.325 2.329 2.329 0 0 0-2.325 2.325v5.814c-2.566 6.105-14.754 4.289-16.279 5.814 0-.767.131-1.653.486-2.575z" fill="#2C2C2C"/><path d="M381.07 282.395c0 .64.523 1.163 1.163 1.163.639 0 1.162-.523 1.162-1.163 0-.639-.523-1.162-1.162-1.162-.64 0-1.163.523-1.163 1.162zM390.372 276.581s-1.213-3.488-3.488-3.488c0 0-3.439 4.651-6.977 4.651l-4.651-1.163s2.711-.195 3.488-1.162c.777-.968 2.957-4.652 5.814-4.652 3.707 0 5.087 1.018 6.977 4.652l-1.163 1.162z" fill="#2C2C2C"/><path d="M381.056 266.13a9.883 9.883 0 0 0-13.927 13.927l-2.465 2.465a13.32 13.32 0 0 1-3.362-8.848c0-7.386 5.986-13.372 13.372-13.372a13.317 13.317 0 0 1 8.849 3.361l-2.467 2.467z" fill="#848484"/><path d="M363.02 284.166c-2.504-2.782-4.043-6.453-4.043-10.492 0-8.671 7.026-15.697 15.697-15.697 1.807.002 3.6.321 5.297.94l-.064.223.163-.191a15.815 15.815 0 0 1 5.096 3.07l.442.468-2.086 1.177a13.32 13.32 0 0 0-8.848-3.362c-7.386 0-13.372 5.986-13.372 13.372 0 3.398 1.277 6.486 3.361 8.849l-1.643 1.643z" fill="#2C2C2C"/></svg>